<?xml version="1.0" encoding="UTF-8"?>
<svg width="24px" height="24px" viewBox="0 0 24 24" version="1.1" xmlns="http://www.w3.org/2000/svg" xmlns:xlink="http://www.w3.org/1999/xlink">
    <!-- Generator: Sketch 49.3 (51167) - http://www.bohemiancoding.com/sketch -->
    <title>Shape</title>
    <desc>Created with Sketch.</desc>
    <defs></defs>
    <g id="Page-1" stroke="none" stroke-width="1" fill="none" fill-rule="evenodd">
        <g id="热点事件详情-发展趋势" transform="translate(-1816.000000, -456.000000)" fill="#55DDE1" fill-rule="nonzero">
            <g id="下载" transform="translate(1816.000000, 456.000000)">
                <path d="M5.49356046,9.71369939 L10.6819836,14.8863597 C11.0340773,15.2360954 11.5023723,15.4285714 11.9999679,15.4285714 C12.4987181,15.4285714 12.9669362,15.235635 13.3185937,14.8851066 L18.5068885,9.71382726 C18.9121182,9.30977072 18.9121182,8.65275365 18.5068885,8.24882498 C18.3106367,8.05315205 18.0496517,7.94548207 17.7720922,7.94548207 C17.4945327,7.94548207 17.2335734,8.05317762 17.0372959,8.24882498 L13.0393665,12.2334583 L13.0393665,1.03590799 C13.0393665,0.464540989 12.5732266,0 12.0001219,0 C11.4270172,0 10.9610056,0.464720013 10.9610056,1.03590799 L10.9610056,12.2343278 L6.96315314,8.24882498 C6.76690127,8.05315205 6.50589065,7.94548207 6.2283568,7.94548207 C5.95079729,7.94548207 5.68986365,8.0532032 5.49356046,8.24882498 C5.29725728,8.44444676 5.18918919,8.70461938 5.18918919,8.98126218 C5.18918919,9.25790499 5.2973086,9.51807761 5.49356046,9.71369939 Z M19.6745501,2.57142857 C19.1030277,2.57142857 18.6383028,3.03301998 18.6383028,3.60068871 C18.6383028,4.16835745 19.1031812,4.62994886 19.6745501,4.62994886 C20.9167932,4.62994886 21.9274542,5.63382058 21.9274542,6.86768748 L21.9274542,18.8464458 C21.9274542,20.0803381 20.9167676,21.0841844 19.6745501,21.0841844 L4.32544989,21.0841844 C3.08318124,21.0841844 2.07254584,20.0803126 2.07254584,18.8464458 L2.07254584,6.86768748 C2.07254584,5.63379517 3.08310448,4.62994886 4.32544989,4.62994886 C4.89697228,4.62994886 5.36169723,4.16835745 5.36169723,3.60068871 C5.36169723,3.03301998 4.89681876,2.57142857 4.32544989,2.57142857 C1.94036674,2.57142857 0,4.49866101 0,6.86776372 L0,18.846522 C0,21.2155485 1.94028998,23.1428571 4.32544989,23.1428571 L19.6745501,23.1428571 C22.0596333,23.1428571 24,21.2156247 24,18.846522 L24,6.86776372 C24,4.49871184 22.05971,2.57142857 19.6745501,2.57142857 Z" id="Shape"></path>
            </g>
        </g>
    </g>
</svg>