<?xml version="1.0" encoding="UTF-8"?>
<svg width="15px" height="13px" viewBox="0 0 15 13" version="1.1" xmlns="http://www.w3.org/2000/svg" xmlns:xlink="http://www.w3.org/1999/xlink">
    <!-- Generator: Sketch 49.3 (51167) - http://www.bohemiancoding.com/sketch -->
    <title>人群画像</title>
    <desc>Created with Sketch.</desc>
    <defs></defs>
    <g id="Page-1" stroke="none" stroke-width="1" fill="none" fill-rule="evenodd">
        <g id="市直单位综合库-综合分析" transform="translate(-117.000000, -596.000000)" fill="#0BAEEA" fill-rule="nonzero">
            <g id="人群画像" transform="translate(117.000000, 596.000000)">
                <path d="M9.54299736,8.16040175 C8.9951584,7.87547711 8.42351887,7.64696358 7.83571268,7.4779128 C8.99720495,6.76669488 9.71494363,5.43927561 9.71582178,4.00075166 C9.71582178,1.79483874 8.04861341,0 5.9995622,0 C3.95051098,0 2.28416261,1.7948361 2.28416261,4.00074902 C2.28494714,5.42254849 2.98624494,6.7371975 4.12655429,7.45448633 C3.55953132,7.61122853 3.00757826,7.82545364 2.47809405,8.09428996 C1.77496635,8.45223664 0.534848199,9.21406369 0.127364889,10.2969492 C-0.139190404,11.0049557 0.0157436773,11.709481 0.563076066,12.2808583 C0.747531464,12.4731703 1.13303424,12.6910013 2.59380914,12.8478206 C3.49626053,12.9445567 4.66504852,12.9986086 5.88469729,13 L5.93016459,13 C7.13688132,13 8.30158306,12.9482681 9.21264925,12.8536203 C10.7143678,12.6977295 11.136287,12.4703875 11.3231049,12.3128726 C11.9264633,11.8041379 12.1361304,11.1404396 11.9131025,10.4442706 C11.5625086,9.35071147 10.278648,8.54388581 9.5429863,8.16041497 L9.54299736,8.16040175 Z" id="Shape"></path>
                <path d="M14.9413404,9.8926845 C14.5735666,8.6460265 12.5146115,7.50634756 10.5251956,7.01843765 C10.9269617,6.76805868 11.2771703,6.45180845 11.5589752,6.08489952 C12.0794662,5.40313362 12.3596505,4.58615318 12.3604067,3.74803117 C12.3604067,1.68131446 10.5648572,0 8.35845386,0 C8.16048526,-1.13534439e-17 8,0.150309213 8,0.335725023 C8,0.521140833 8.16048526,0.671450046 8.35845386,0.671450046 C10.1696036,0.671450046 11.6435685,2.05150581 11.6435685,3.74803117 C11.6435685,5.19030997 10.6731153,6.45620873 9.28327369,6.82618315 C9.12563447,6.86811447 9.0184288,7.00483323 9.02288208,7.15825906 C9.02733535,7.31168488 9.1423135,7.44274653 9.30215226,7.47659443 L9.30573679,7.47659443 C9.31433968,7.47838497 9.3231815,7.47972786 9.33202341,7.48084694 L9.33919248,7.48218983 C10.3918505,7.60685563 11.549656,7.9719003 12.5155681,8.48376865 C13.469771,8.98914684 14.1020868,9.56771216 14.2502422,10.0706275 C14.313569,10.285267 14.3393777,10.6133822 13.8370653,10.9817844 C13.8048045,11.005509 13.6009636,11.1292791 12.7471273,11.2490215 C12.5620207,11.2753346 12.4297157,11.4306419 12.4434243,11.6055261 C12.4571328,11.7804102 12.6122366,11.9159551 12.7994615,11.9166663 C12.8173737,11.9166911 12.835264,11.9154943 12.8529905,11.9130852 C13.824877,11.7770051 14.1324309,11.6180946 14.2789145,11.510216 C15.0526545,10.9432827 15.066143,10.3179388 14.9413404,9.8926845 Z" id="Shape"></path>
            </g>
        </g>
    </g>
</svg>