<?xml version="1.0" encoding="UTF-8"?>
<svg width="15px" height="13px" viewBox="0 0 15 13" version="1.1" xmlns="http://www.w3.org/2000/svg" xmlns:xlink="http://www.w3.org/1999/xlink">
    <!-- Generator: Sketch 49.3 (51167) - http://www.bohemiancoding.com/sketch -->
    <title>诉求处理</title>
    <desc>Created with Sketch.</desc>
    <defs></defs>
    <g id="Page-1" stroke="none" stroke-width="1" fill="none" fill-rule="evenodd">
        <g id="市直单位综合库-综合分析" transform="translate(-117.000000, -516.000000)" fill="#0BAEEA" fill-rule="nonzero">
            <g id="诉求处理" transform="translate(117.000000, 516.000000)">
                <path d="M3.54721099,2.5975756 C3.54721099,4.03230318 4.78166915,5.19601705 6.3049819,5.19601705 C7.8273366,5.19601705 9.06227379,4.03230318 9.06227379,2.5975756 C9.06227379,1.16328094 7.8273366,0 6.3049819,0 C4.78119012,0 3.54721099,1.16328094 3.54721099,2.5975756 Z M12.1644667,10.9513787 C11.956089,10.5327361 11.5283159,9.30018649 11.0387481,9.30018649 C10.5501384,9.30018649 10.510379,9.46686426 10.510379,9.46686426 L11.0387481,10.7466032 L8.3331914,10.533169 L7.18926975,8.08798455 C6.07121567,5.59561076 4.95172451,5.31463967 3.859538,5.31463967 C3.3306898,5.31463967 2.22030019,5.37178633 1.36954439,6.34371253 C0.520704705,7.31520581 0,12.6965166 0,12.6965166 L5.18022142,12.6965166 L3.31871407,9.42530305 L4.10480094,8.9763554 C4.10480094,8.9763554 4.24419842,9.24736912 5.15674899,11.0033302 C6.07073664,12.7605901 6.69443262,13 6.69443262,13 L11.562806,13 C12.2789547,13 12.8571429,12.7908952 12.8571429,11.9540429 C12.8571429,11.1176236 12.1644667,10.9513787 12.1644667,10.9513787 Z" id="Shape"></path>
                <path d="M9.39593246,6 C9.39593246,6 8.83434793,6.90390181 8.38947019,7.29058824 C7.9429864,7.67727467 7.07089756,8.66136491 7.74972423,9.45166645 L9.74605284,6.72436882 L13.9137702,8.30630836 L12.3831981,10.2094471 C12.3831981,10.2094471 12.1690572,10.9676733 12.4602888,10.9997486 C12.7509851,11.031824 15,7.98332718 15,7.98332718 L9.39593246,6 Z" id="Shape"></path>
            </g>
        </g>
    </g>
</svg>