<?xml version="1.0" encoding="UTF-8"?>
<svg width="15px" height="14px" viewBox="0 0 15 14" version="1.1" xmlns="http://www.w3.org/2000/svg" xmlns:xlink="http://www.w3.org/1999/xlink">
    <!-- Generator: Sketch 49.3 (51167) - http://www.bohemiancoding.com/sketch -->
    <title>Shape</title>
    <desc>Created with Sketch.</desc>
    <defs></defs>
    <g id="商家版" stroke="none" stroke-width="1" fill="none" fill-rule="evenodd">
        <g id="我的" transform="translate(-277.000000, -420.000000)" fill="#FFB20E" fill-rule="nonzero">
            <g id="Group-3-Copy" transform="translate(257.000000, 420.000000)">
                <path d="M27.905236,11.92058 L31.2415649,13.8872073 C31.8356822,14.2379113 32.5706017,13.7177283 32.4126284,13.0565925 L31.530038,9.34819136 C31.4647882,9.07131978 31.5609459,8.78102412 31.7807349,8.59476506 L34.7272817,6.10124283 C35.2527148,5.65657029 34.9728272,4.81420948 34.2808352,4.75547915 L30.3967508,4.42994529 C30.1065606,4.40645315 29.8541466,4.22690613 29.7408179,3.96513663 L28.224617,0.468164672 C27.9533149,-0.156054891 27.0484022,-0.156054891 26.7788172,0.468164672 L25.2626163,3.96513663 C25.1492876,4.22690613 24.8968736,4.40645315 24.6066834,4.42994529 L20.7191648,4.75380114 C20.0271728,4.81253147 19.7472852,5.65489228 20.2727183,6.09956482 L23.2192651,8.59308705 C23.4390541,8.77934611 23.5352118,9.06964177 23.469962,9.34651335 L22.5873716,13.0549145 C22.4293983,13.7160503 23.1643178,14.2362333 23.7584351,13.8855293 L27.094764,11.92058 C27.3437437,11.7745932 27.6562563,11.7745932 27.905236,11.92058 Z" id="Shape"></path>
            </g>
        </g>
    </g>
</svg>