<?xml version="1.0" encoding="UTF-8"?>
<svg width="8px" height="15px" viewBox="0 0 8 15" version="1.1" xmlns="http://www.w3.org/2000/svg" xmlns:xlink="http://www.w3.org/1999/xlink">
    <!-- Generator: Sketch 49.3 (51167) - http://www.bohemiancoding.com/sketch -->
    <title>Shape Copy</title>
    <desc>Created with Sketch.</desc>
    <defs></defs>
    <g id="Page-1" stroke="none" stroke-width="1" fill="none" fill-rule="evenodd">
        <g id="行政区域分析库-诉求处理" transform="translate(-1231.000000, -370.000000)" fill="#FF2559" fill-rule="nonzero">
            <path d="M1239,375.191524 C1239,375.234591 1238.98668,375.277657 1238.95943,375.314001 C1238.90491,375.387109 1238.80857,375.41442 1238.7243,375.380597 L1236.20954,374.37767 L1236.20954,380.255949 C1236.20954,380.368342 1236.11924,380.459517 1236.00771,380.459517 L1233.99232,380.459517 C1233.88121,380.459517 1233.7909,380.368342 1233.7909,380.255949 L1233.7909,374.37767 L1231.27572,375.380597 C1231.19166,375.41421 1231.09533,375.386899 1231.04081,375.314001 C1230.98609,375.240893 1230.9863,375.140054 1231.04206,375.067576 L1234.84021,370.079411 C1234.8785,370.029201 1234.93738,370 1235.00001,370 C1235.06264,370 1235.12174,370.029411 1235.15981,370.079411 L1238.95818,375.067576 C1238.98585,375.10392 1239,375.147617 1239,375.191524 Z M1235.00001,381.558031 C1234.05869,381.558031 1233.29548,382.328399 1233.29548,383.279016 C1233.29548,384.229633 1234.05869,385 1235.00001,385 C1235.94133,385 1236.70475,384.229633 1236.70475,383.279016 C1236.70475,382.328609 1235.94133,381.558031 1235.00001,381.558031 Z" id="Shape-Copy"></path>
        </g>
    </g>
</svg>