<?xml version="1.0" encoding="UTF-8"?>
<svg width="15px" height="13px" viewBox="0 0 15 13" version="1.1" xmlns="http://www.w3.org/2000/svg" xmlns:xlink="http://www.w3.org/1999/xlink">
    <!-- Generator: Sketch 49.3 (51167) - http://www.bohemiancoding.com/sketch -->
    <title>综合分析</title>
    <desc>Created with Sketch.</desc>
    <defs></defs>
    <g id="Page-1" stroke="none" stroke-width="1" fill="none" fill-rule="evenodd">
        <g id="市直单位综合库-综合分析" transform="translate(-117.000000, -436.000000)" fill="#0BAEEA" fill-rule="nonzero">
            <g id="综合分析" transform="translate(117.000000, 436.000000)">
                <path d="M2.58064516,11 L4.41935484,11 C4.74006964,11 5,10.7776823 5,10.5034848 L5,3.49654893 C5,3.22228402 4.74003022,3 4.41935484,3 L2.58064516,3 C2.25993036,3 2,3.22231773 2,3.49654893 L2,10.5034511 C1.99996058,10.7776823 2.25993036,11 2.58064516,11 Z" id="Shape"></path>
                <path d="M7.38709677,11 L8.61290323,11 C8.82671309,11 9,10.6943564 9,10.3172871 L9,0.68277633 C9,0.30567532 8.82668681,0 8.61290323,0 L7.38709677,0 C7.17331319,0 7,0.30567532 7,0.68277633 L7,10.3172871 C7,10.6943564 7.17328691,11 7.38709677,11 Z" id="Shape"></path>
                <path d="M11.5806452,11 L13.4193548,11 C13.7400696,11 14,10.7221679 14,10.3792975 L14,1.62067147 C14,1.27786307 13.7400302,1 13.4193548,1 L11.5806452,1 C11.2599304,1 11,1.27786307 11,1.62067147 L11,10.3792975 C10.9999606,10.7221369 11.2599304,11 11.5806452,11 Z" id="Shape"></path>
                <polygon id="Shape" points="0 12 15 12 15 13 8.25185586e-17 13"></polygon>
            </g>
        </g>
    </g>
</svg>