<?xml version="1.0" encoding="UTF-8"?>
<svg width="8px" height="15px" viewBox="0 0 8 15" version="1.1" xmlns="http://www.w3.org/2000/svg" xmlns:xlink="http://www.w3.org/1999/xlink">
    <!-- Generator: Sketch 49.3 (51167) - http://www.bohemiancoding.com/sketch -->
    <title>Shape Copy 2</title>
    <desc>Created with Sketch.</desc>
    <defs></defs>
    <g id="Page-1" stroke="none" stroke-width="1" fill="none" fill-rule="evenodd">
        <g id="行政区域分析库-诉求处理" transform="translate(-691.000000, -370.000000)" fill="#00D2A5" fill-rule="nonzero">
            <path d="M699,375.191524 C699,375.234591 698.986683,375.277657 698.959426,375.314001 C698.904911,375.387109 698.808573,375.41442 698.724304,375.380597 L696.209539,374.37767 L696.209539,380.255949 C696.209539,380.368342 696.119236,380.459517 696.007709,380.459517 L693.992319,380.459517 C693.881208,380.459517 693.790904,380.368342 693.790904,380.255949 L693.790904,374.37767 L691.275724,375.380597 C691.191663,375.41421 691.095325,375.386899 691.04081,375.314001 C690.986087,375.240893 690.986295,375.140054 691.042058,375.067576 L694.840214,370.079411 C694.8785,370.029201 694.937384,370 695.000014,370 C695.062644,370 695.121736,370.029411 695.159814,370.079411 L698.958177,375.067576 C698.985851,375.10392 699,375.147617 699,375.191524 Z M695.000014,381.558031 C694.058694,381.558031 693.295484,382.328399 693.295484,383.279016 C693.295484,384.229633 694.058694,385 695.000014,385 C695.941334,385 696.704752,384.229633 696.704752,383.279016 C696.704752,382.328609 695.941334,381.558031 695.000014,381.558031 Z" id="Shape-Copy-2" transform="translate(695.000000, 377.500000) scale(1, -1) translate(-695.000000, -377.500000) "></path>
        </g>
    </g>
</svg>