<?xml version="1.0" encoding="UTF-8"?>
<svg width="1027px" height="18px" viewBox="0 0 1027 18" version="1.1" xmlns="http://www.w3.org/2000/svg" xmlns:xlink="http://www.w3.org/1999/xlink">
    <!-- Generator: Sketch 49.3 (51167) - http://www.bohemiancoding.com/sketch -->
    <title>Group Copy 2</title>
    <desc>Created with Sketch.</desc>
    <defs></defs>
    <g id="Page-1" stroke="none" stroke-width="1" fill="none" fill-rule="evenodd">
        <g id="首页" transform="translate(-450.000000, -568.000000)" fill="#55DDE1" fill-rule="nonzero">
            <g id="Group-Copy-2" transform="translate(963.500000, 577.000000) scale(1, -1) translate(-963.500000, -577.000000) translate(450.000000, 568.000000)">
                <polygon id="Shape" points="46 6 18.2416731 6 12 13 39.7583269 13"></polygon>
                <polygon id="Shape-Copy-3" points="77 6 49.2416731 6 43 13 70.7583269 13"></polygon>
                <polygon id="Shape-Copy-4" points="108 6 80.2416731 6 74 13 101.758327 13"></polygon>
                <polygon id="Shape" points="1026.585 15 310.190236 15 310.083951 14.8993711 298.2067 3.65408805 0 3.65408805 0 3 298.525552 3 298.631836 3.10062893 310.482517 14.3207547 693.898372 14.3207547 696.495929 15"></polygon>
                <polygon id="Shape" transform="translate(991.000000, 9.500000) scale(-1, 1) translate(-991.000000, -9.500000) " points="1008 6 980.241673 6 974 13 1001.75833 13"></polygon>
                <polygon id="Shape-Copy-3" transform="translate(960.000000, 9.500000) scale(-1, 1) translate(-960.000000, -9.500000) " points="977 6 949.241673 6 943 13 970.758327 13"></polygon>
                <polygon id="Shape-Copy-4" transform="translate(929.000000, 9.500000) scale(-1, 1) translate(-929.000000, -9.500000) " points="946 6 918.241673 6 912 13 939.758327 13"></polygon>
                <polygon id="Shape" transform="translate(857.000000, 9.000000) scale(-1, 1) translate(-857.000000, -9.000000) " points="1020 15 1004.19024 15 1004.08395 14.8993711 992.2067 3.65408805 694 3.65408805 694 3 992.525552 3 992.631836 3.10062893 1004.48252 14.3207547 1020 14.3207547"></polygon>
            </g>
        </g>
    </g>
</svg>