<?xml version="1.0" encoding="UTF-8"?>
<svg width="16px" height="16px" viewBox="0 0 16 16" version="1.1" xmlns="http://www.w3.org/2000/svg" xmlns:xlink="http://www.w3.org/1999/xlink">
    <!-- Generator: Sketch 49.3 (51167) - http://www.bohemiancoding.com/sketch -->
    <title>列表</title>
    <desc>Created with Sketch.</desc>
    <defs></defs>
    <g id="Page-1" stroke="none" stroke-width="1" fill="none" fill-rule="evenodd">
        <g id="热点事件列表" transform="translate(-50.000000, -135.000000)" fill="#55DDE1" fill-rule="nonzero">
            <g id="列表" transform="translate(50.000000, 135.000000)">
                <path d="M5.44444642,7 L1.55555358,7 C0.697819259,7 0,6.30218074 0,5.44444642 L0,1.55555358 C0,0.697819259 0.697819259,0 1.55555358,0 L5.44444642,0 C6.30218074,0 7,0.697819259 7,1.55555358 L7,5.44444642 C7,6.30218074 6.30218074,7 5.44444642,7 Z M1.55555358,1.29626795 C1.41258599,1.29626795 1.29630355,1.41256819 1.29630355,1.55551797 L1.29630355,5.44441082 C1.29630355,5.58737841 1.41260379,5.70366085 1.55555358,5.70366085 L5.44444642,5.70366085 C5.58741401,5.70366085 5.70369645,5.5873606 5.70369645,5.44441082 L5.70369645,1.55551797 C5.70369645,1.41255039 5.58739621,1.29626795 5.44444642,1.29626795 L1.55555358,1.29626795 Z" id="Shape"></path>
                <path d="M5.44444642,16 L1.55555358,16 C0.697819259,16 0,15.3021807 0,14.4444464 L0,10.5555536 C0,9.69781926 0.697819259,9 1.55555358,9 L5.44444642,9 C6.30218074,9 7,9.69781926 7,10.5555536 L7,14.4444464 C7,15.3021807 6.30218074,16 5.44444642,16 Z M1.55555358,10.2963035 C1.41258599,10.2963035 1.29630355,10.4126038 1.29630355,10.5555536 L1.29630355,14.4444464 C1.29630355,14.587414 1.41260379,14.7036965 1.55555358,14.7036965 L5.44444642,14.7036965 C5.58741401,14.7036965 5.70369645,14.5873962 5.70369645,14.4444464 L5.70369645,10.5555536 C5.70369645,10.412586 5.58739621,10.2963035 5.44444642,10.2963035 L1.55555358,10.2963035 Z" id="Shape"></path>
                <path d="M15.3518499,2 L9.64815013,2 C9.29018911,2 9,1.77614051 9,1.5 C9,1.22385949 9.29018911,1 9.64815013,1 L15.3518499,1 C15.7098109,1 16,1.22385949 16,1.5 C16,1.77614051 15.7098109,2 15.3518499,2 Z" id="Shape"></path>
                <path d="M15.3518499,5 L9.64815013,5 C9.29018911,5 9,4.77614051 9,4.5 C9,4.22385949 9.29018911,4 9.64815013,4 L15.3518499,4 C15.7098109,4 16,4.22385949 16,4.5 C16,4.77614051 15.7098109,5 15.3518499,5 Z" id="Shape"></path>
                <path d="M15.3518499,12 L9.64815013,12 C9.29018911,12 9,11.7761405 9,11.5 C9,11.2238595 9.29018911,11 9.64815013,11 L15.3518499,11 C15.7098109,11 16,11.2238595 16,11.5 C16,11.7761405 15.7098109,12 15.3518499,12 Z" id="Shape"></path>
                <path d="M15.3518499,14 L9.64815013,14 C9.29018911,14 9,13.7761405 9,13.5 C9,13.2238595 9.29018911,13 9.64815013,13 L15.3518499,13 C15.7098109,13 16,13.2238595 16,13.5 C16,13.7761405 15.7098109,14 15.3518499,14 Z" id="Shape"></path>
            </g>
        </g>
    </g>
</svg>