<?xml version="1.0" encoding="UTF-8"?>
<svg width="668px" height="54px" viewBox="0 0 668 54" version="1.1" xmlns="http://www.w3.org/2000/svg" xmlns:xlink="http://www.w3.org/1999/xlink">
    <!-- Generator: Sketch 49.3 (51167) - http://www.bohemiancoding.com/sketch -->
    <title>系统名称线框</title>
    <desc>Created with Sketch.</desc>
    <defs></defs>
    <g id="Page-1" stroke="none" stroke-width="1" fill="none" fill-rule="evenodd">
        <g id="首页" transform="translate(-626.000000, -46.000000)" fill-rule="nonzero">
            <g id="系统名称线框" transform="translate(626.000000, 46.000000)">
                <polygon id="Shape" fill="#99E9EB" points="20 27 33.2236543 27 47 40.6815102 47 48 36.2736922 48 20 31.8383349"></polygon>
                <polygon id="Shape" fill="#55DDE1" points="59 20.7472256 59 11 84.9197761 11 92 18.2527744 66.0802239 18.2527744 66.0802239 28"></polygon>
                <polygon id="Shape" fill="#55DDE1" points="75 27.6813953 75 38 47.5337243 38 40 30.3186047 67.4868035 30.3186047 67.4868035 20"></polygon>
                <polygon id="Shape" fill="#55DDE1" points="407 40 440.466072 40 448 32 414.533928 32"></polygon>
                <polygon id="Shape" fill="#55DDE1" points="192.418256 40 200 32 80 32 80 40"></polygon>
                <polygon id="Shape" fill="#55DDE1" points="472 30 112.135696 30 112.012819 29.8795181 97.6977071 15.8433735 79 15.8433735 79 15 98.0458572 15 98.1687337 15.1405622 112.483846 29.1566265 472 29.1566265"></polygon>
                <polygon id="Shape" fill="#55DDE1" points="53.9305676 54 18.0451311 54 0 35.9384966 0 28.9066059 28.8804027 0 63.7621941 0 63.4549557 18.881549 61.5295956 18.8610478 61.7958688 1.92710706 29.6792224 1.92710706 1.92536018 29.7061503 1.92536018 35.1389522 18.8439507 52.0523918 53.131748 52.0523918 70.6033675 34.5649203 472 34.5649203 472 36.5125285 71.4021871 36.5125285"></polygon>
                <polygon id="Shape" fill="#55DDE1" points="36 48 24.831441 48 13 36.0387692 13 15 27.6034934 15 27.6034934 30.4338462 25.7152838 30.4338462 25.7152838 16.9089231 14.9082969 16.9089231 14.9082969 35.2467692 25.6148472 46.0707692 36 46.0707692"></polygon>
                <polygon id="Shape" fill="#99E9EB" transform="translate(634.500000, 37.500000) scale(-1, 1) translate(-634.500000, -37.500000) " points="621 27 634.223654 27 648 40.6815102 648 48 637.273692 48 621 31.8383349"></polygon>
                <polygon id="Shape" fill="#55DDE1" transform="translate(592.500000, 19.500000) scale(-1, 1) translate(-592.500000, -19.500000) " points="576 20.7472256 576 11 601.919776 11 609 18.2527744 583.080224 18.2527744 583.080224 28"></polygon>
                <polygon id="Shape" fill="#55DDE1" transform="translate(610.500000, 29.000000) scale(-1, 1) translate(-610.500000, -29.000000) " points="628 27.6813953 628 38 600.533724 38 593 30.3186047 620.486804 30.3186047 620.486804 20"></polygon>
                <polygon id="Shape" fill="#55DDE1" transform="translate(240.500000, 36.000000) scale(-1, 1) translate(-240.500000, -36.000000) " points="220 40 253.466072 40 261 32 227.533928 32"></polygon>
                <polygon id="Shape" fill="#55DDE1" transform="translate(528.000000, 36.000000) scale(-1, 1) translate(-528.000000, -36.000000) " points="580.418256 40 588 32 468 32 468 40"></polygon>
                <polygon id="Shape" fill="#55DDE1" transform="translate(392.500000, 22.500000) scale(-1, 1) translate(-392.500000, -22.500000) " points="589 30 229.135696 30 229.012819 29.8795181 214.697707 15.8433735 196 15.8433735 196 15 215.045857 15 215.168734 15.1405622 229.483846 29.1566265 589 29.1566265"></polygon>
                <polygon id="Shape" fill="#55DDE1" transform="translate(432.000000, 27.000000) scale(-1, 1) translate(-432.000000, -27.000000) " points="249.930568 54 214.045131 54 196 35.9384966 196 28.9066059 224.880403 0 259.762194 0 259.454956 18.881549 257.529596 18.8610478 257.795869 1.92710706 225.679222 1.92710706 197.92536 29.7061503 197.92536 35.1389522 214.843951 52.0523918 249.131748 52.0523918 266.603367 34.5649203 668 34.5649203 668 36.5125285 267.402187 36.5125285"></polygon>
                <polygon id="Shape" fill="#55DDE1" transform="translate(643.500000, 31.500000) scale(-1, 1) translate(-643.500000, -31.500000) " points="655 48 643.831441 48 632 36.0387692 632 15 646.603493 15 646.603493 30.4338462 644.715284 30.4338462 644.715284 16.9089231 633.908297 16.9089231 633.908297 35.2467692 644.614847 46.0707692 655 46.0707692"></polygon>
            </g>
        </g>
    </g>
</svg>