<?xml version="1.0" encoding="UTF-8"?>
<svg width="14px" height="14px" viewBox="0 0 14 14" version="1.1" xmlns="http://www.w3.org/2000/svg" xmlns:xlink="http://www.w3.org/1999/xlink">
    <!-- Generator: Sketch 49.3 (51167) - http://www.bohemiancoding.com/sketch -->
    <title>类目 品类 分类 类别.2</title>
    <desc>Created with Sketch.</desc>
    <defs></defs>
    <g id="Page-1" stroke="none" stroke-width="1" fill="none" fill-rule="evenodd">
        <g id="行政区域分析库-综合分析" transform="translate(-118.000000, -516.000000)" fill="#0BAEEA" fill-rule="nonzero">
            <g id="Group-3" transform="translate(30.000000, 115.000000)">
                <g id="类目-品类-分类-类别.2" transform="translate(88.000000, 401.000000)">
                    <path d="M4.30769231,0 L2.15384615,0 C0.969230769,0 0,0.969230769 0,2.15384615 L0,4.30769231 C0,5.49230769 0.969230769,6.46153846 2.15384615,6.46153846 L4.30769231,6.46153846 C5.49230769,6.46153846 6.46153846,5.49230769 6.46153846,4.30769231 L6.46153846,2.15384615 C6.46153846,0.969230769 5.49230769,0 4.30769231,0 Z M11.8461538,0 L9.69230769,0 C8.50769231,0 7.53846154,0.969230769 7.53846154,2.15384615 L7.53846154,4.30769231 C7.53846154,5.49230769 8.50769231,6.46153846 9.69230769,6.46153846 L11.8461538,6.46153846 C13.0307692,6.46153846 14,5.49230769 14,4.30769231 L14,2.15384615 C14,0.969230769 13.0307692,0 11.8461538,0 Z M4.30769231,7.53846154 L2.15384615,7.53846154 C0.969230769,7.53846154 0,8.50769231 0,9.69230769 L0,11.8461538 C0,13.0307692 0.969230769,14 2.15384615,14 L4.30769231,14 C5.49230769,14 6.46153846,13.0307692 6.46153846,11.8461538 L6.46153846,9.69230769 C6.46153846,8.50769231 5.49230769,7.53846154 4.30769231,7.53846154 Z M11.8461538,7.53846154 L9.69230769,7.53846154 C8.50769231,7.53846154 7.53846154,8.50769231 7.53846154,9.69230769 L7.53846154,11.8461538 C7.53846154,13.0307692 8.50769231,14 9.69230769,14 L11.8461538,14 C13.0307692,14 14,13.0307692 14,11.8461538 L14,9.69230769 C14,8.50769231 13.0307692,7.53846154 11.8461538,7.53846154 Z" id="Shape"></path>
                </g>
            </g>
        </g>
    </g>
</svg>