<?xml version="1.0" standalone="no"?><!DOCTYPE svg PUBLIC "-//W3C//DTD SVG 1.1//EN" "http://www.w3.org/Graphics/SVG/1.1/DTD/svg11.dtd"><svg t="1533699899097" class="icon" style="" viewBox="0 0 1024 1024" version="1.1" xmlns="http://www.w3.org/2000/svg" p-id="1047" xmlns:xlink="http://www.w3.org/1999/xlink" width="200" height="200"><defs><style type="text/css"></style></defs><path d="M817 372.3c-50.4-51.2-117.2-79.5-188.2-79.5h-384l95.4-78.5c12.8-10.5 14.6-29.4 4.1-42.2-10.5-12.8-29.4-14.6-42.2-4.1L143.2 298.7c-7.4 5.5-12.2 14.2-12.2 24.1 0 9.8 4.7 18.5 12 24l158.8 132.4c5.4 4.5 12.2 7 19.2 7 9 0 17.4-4 23.2-10.8 10.6-12.8 8.8-31.7-3.9-42.2L244 353h384.8c54.7 0 106.4 21.9 145.5 61.5 81 82.4 81 214.5 0 296.9-39.1 39.7-90.7 61.5-145.5 61.5h-330c-16.6 0-30 13.4-30 30s13.4 30 30 30h330c71 0 137.8-28.2 188.2-79.5 104-105.8 104-275.4 0-381.1z" p-id="1048" fill="#ffffff"></path></svg>